<?xml version="1.0" standalone="no"?>
<!DOCTYPE svg PUBLIC "-//W3C//DTD SVG 20010904//EN"
 "http://www.w3.org/TR/2001/REC-SVG-20010904/DTD/svg10.dtd">
<svg version="1.0" xmlns="http://www.w3.org/2000/svg"
 width="700.000000pt" height="700.000000pt" viewBox="0 0 700.000000 700.000000"
 preserveAspectRatio="xMidYMid meet">
<metadata>
Created by potrace 1.11, written by Peter Selinger 2001-2013
</metadata>
<g transform="translate(0.000000,700.000000) scale(0.100000,-0.100000)"
fill="#000000" stroke="none">
<path d="M3300 6994 c-291 -20 -493 -46 -685 -89 -846 -190 -1509 -645 -1981
-1360 -320 -484 -551 -1108 -610 -1648 -21 -183 -23 -588 -5 -759 l14 -128
1116 -2 1116 -3 -1113 -2 c-1094 -3 -1112 -3 -1112 -23 0 -10 9 -68 21 -127
100 -527 329 -1069 632 -1499 292 -414 690 -760 1128 -980 439 -220 901 -333
1491 -365 594 -32 1192 69 1678 283 654 288 1167 778 1543 1473 192 355 370
857 423 1192 l7 43 -1134 3 -1134 2 1136 3 1136 2 7 62 c31 302 28 668 -9 913
-20 132 -76 356 -135 535 -315 962 -903 1706 -1663 2101 -381 197 -768 309
-1242 359 -105 11 -531 20 -625 14z m685 -238 c408 -54 730 -148 1038 -302
780 -390 1361 -1146 1652 -2146 19 -66 35 -124 35 -129 0 -5 -431 -9 -1059 -9
l-1059 0 -25 43 c-78 132 -233 290 -388 393 -202 135 -396 197 -649 210 -338
16 -669 -107 -920 -343 -79 -74 -187 -204 -226 -270 l-18 -33 -1043 0 -1043 0
6 28 c109 451 284 863 519 1222 529 808 1318 1258 2365 1349 152 14 682 5 815
-13z m-294 -2395 c380 -98 647 -432 666 -833 7 -142 -7 -238 -52 -366 -78
-218 -243 -403 -451 -506 -213 -104 -465 -114 -694 -25 -214 82 -413 285 -500
511 -60 155 -77 364 -44 526 64 313 298 580 592 677 149 48 335 55 483 16z
m-1266 -1658 c71 -106 222 -259 326 -330 150 -103 344 -183 519 -214 110 -20
335 -17 445 5 346 71 645 273 840 569 l38 57 1058 0 c583 0 1059 -3 1059 -6 0
-40 -125 -413 -194 -582 -314 -757 -857 -1359 -1511 -1673 -343 -164 -677
-254 -1120 -300 -144 -15 -586 -15 -745 0 -682 65 -1236 272 -1705 638 -247
192 -497 473 -681 765 -89 141 -262 494 -324 661 -43 116 -119 365 -144 470
l-6 27 1043 0 1043 0 59 -87z"/>
</g>
</svg>
